<svg xmlns="http://www.w3.org/2000/svg" width="980" height="700" viewBox="0 0 980 700">
<rect width="100%" height="100%" fill="white"/>
<text x="490" y="34" text-anchor="middle" font-size="22" font-family="Arial" font-weight="bold">TopoEmbodiedLoop closed-loop comparison</text>
<text x="490" y="58" text-anchor="middle" font-size="13" font-family="Arial" fill="#555">reactive vs reasoner_guard vs full_loop</text>
<text x="280.0" y="56" text-anchor="middle" font-size="16" font-family="Arial" font-weight="bold">Success rate (%)</text>
<line x1="70" y1="310" x2="490" y2="310" stroke="#333"/>
<line x1="70" y1="70" x2="70" y2="310" stroke="#333"/>
<line x1="66" y1="310.0" x2="490" y2="310.0" stroke="#eee"/>
<text x="62" y="314.0" text-anchor="end" font-size="11" font-family="Arial" fill="#555">0</text>
<line x1="66" y1="250.0" x2="490" y2="250.0" stroke="#eee"/>
<text x="62" y="254.0" text-anchor="end" font-size="11" font-family="Arial" fill="#555">25</text>
<line x1="66" y1="190.0" x2="490" y2="190.0" stroke="#eee"/>
<text x="62" y="194.0" text-anchor="end" font-size="11" font-family="Arial" fill="#555">50</text>
<line x1="66" y1="130.0" x2="490" y2="130.0" stroke="#eee"/>
<text x="62" y="134.0" text-anchor="end" font-size="11" font-family="Arial" fill="#555">75</text>
<line x1="66" y1="70.0" x2="490" y2="70.0" stroke="#eee"/>
<text x="62" y="74.0" text-anchor="end" font-size="11" font-family="Arial" fill="#555">100</text>
<rect x="135" y="310.0" width="74" height="0.0" fill="#e74c3c" rx="3"/>
<text x="172.0" y="304.0" text-anchor="middle" font-size="12" font-family="Arial">0.0%</text>
<text x="172.0" y="330" text-anchor="middle" font-size="11" font-family="Arial" transform="rotate(-18 172.0,330)">reactive</text>
<rect x="264" y="73.0" width="74" height="237.0" fill="#3498db" rx="3"/>
<text x="301.0" y="67.0" text-anchor="middle" font-size="12" font-family="Arial">98.8%</text>
<text x="301.0" y="330" text-anchor="middle" font-size="11" font-family="Arial" transform="rotate(-18 301.0,330)">reasoner_guard</text>
<rect x="393" y="73.0" width="74" height="237.0" fill="#2ecc71" rx="3"/>
<text x="430.0" y="67.0" text-anchor="middle" font-size="12" font-family="Arial">98.8%</text>
<text x="430.0" y="330" text-anchor="middle" font-size="11" font-family="Arial" transform="rotate(-18 430.0,330)">full_loop</text>
<text x="760.0" y="56" text-anchor="middle" font-size="16" font-family="Arial" font-weight="bold">Peak force</text>
<line x1="550" y1="310" x2="970" y2="310" stroke="#333"/>
<line x1="550" y1="70" x2="550" y2="310" stroke="#333"/>
<line x1="546" y1="310.0" x2="970" y2="310.0" stroke="#eee"/>
<text x="542" y="314.0" text-anchor="end" font-size="11" font-family="Arial" fill="#555">0</text>
<line x1="546" y1="250.0" x2="970" y2="250.0" stroke="#eee"/>
<text x="542" y="254.0" text-anchor="end" font-size="11" font-family="Arial" fill="#555">31</text>
<line x1="546" y1="190.0" x2="970" y2="190.0" stroke="#eee"/>
<text x="542" y="194.0" text-anchor="end" font-size="11" font-family="Arial" fill="#555">62</text>
<line x1="546" y1="130.0" x2="970" y2="130.0" stroke="#eee"/>
<text x="542" y="134.0" text-anchor="end" font-size="11" font-family="Arial" fill="#555">94</text>
<line x1="546" y1="70.0" x2="970" y2="70.0" stroke="#eee"/>
<text x="542" y="74.0" text-anchor="end" font-size="11" font-family="Arial" fill="#555">125</text>
<rect x="615" y="106.61016949152543" width="74" height="203.38983050847457" fill="#e74c3c" rx="3"/>
<text x="652.0" y="100.61016949152543" text-anchor="middle" font-size="12" font-family="Arial">105.7</text>
<text x="652.0" y="330" text-anchor="middle" font-size="11" font-family="Arial" transform="rotate(-18 652.0,330)">reactive</text>
<rect x="744" y="202.30677027817273" width="74" height="107.69322972182725" fill="#3498db" rx="3"/>
<text x="781.0" y="196.30677027817273" text-anchor="middle" font-size="12" font-family="Arial">56.0</text>
<text x="781.0" y="330" text-anchor="middle" font-size="11" font-family="Arial" transform="rotate(-18 781.0,330)">reasoner_guard</text>
<rect x="873" y="202.39410587463303" width="74" height="107.60589412536697" fill="#2ecc71" rx="3"/>
<text x="910.0" y="196.39410587463303" text-anchor="middle" font-size="12" font-family="Arial">55.9</text>
<text x="910.0" y="330" text-anchor="middle" font-size="11" font-family="Arial" transform="rotate(-18 910.0,330)">full_loop</text>
<text x="280.0" y="366" text-anchor="middle" font-size="16" font-family="Arial" font-weight="bold">Impulse</text>
<line x1="70" y1="620" x2="490" y2="620" stroke="#333"/>
<line x1="70" y1="380" x2="70" y2="620" stroke="#333"/>
<line x1="66" y1="620.0" x2="490" y2="620.0" stroke="#eee"/>
<text x="62" y="624.0" text-anchor="end" font-size="11" font-family="Arial" fill="#555">0</text>
<line x1="66" y1="560.0" x2="490" y2="560.0" stroke="#eee"/>
<text x="62" y="564.0" text-anchor="end" font-size="11" font-family="Arial" fill="#555">21</text>
<line x1="66" y1="500.0" x2="490" y2="500.0" stroke="#eee"/>
<text x="62" y="504.0" text-anchor="end" font-size="11" font-family="Arial" fill="#555">41</text>
<line x1="66" y1="440.0" x2="490" y2="440.0" stroke="#eee"/>
<text x="62" y="444.0" text-anchor="end" font-size="11" font-family="Arial" fill="#555">62</text>
<line x1="66" y1="380.0" x2="490" y2="380.0" stroke="#eee"/>
<text x="62" y="384.0" text-anchor="end" font-size="11" font-family="Arial" fill="#555">83</text>
<rect x="135" y="416.6101694915254" width="74" height="203.38983050847457" fill="#e74c3c" rx="3"/>
<text x="172.0" y="410.6101694915254" text-anchor="middle" font-size="12" font-family="Arial">70.3</text>
<text x="172.0" y="640" text-anchor="middle" font-size="11" font-family="Arial" transform="rotate(-18 172.0,640)">reactive</text>
<rect x="264" y="532.8084530732715" width="74" height="87.19154692672853" fill="#3498db" rx="3"/>
<text x="301.0" y="526.8084530732715" text-anchor="middle" font-size="12" font-family="Arial">30.1</text>
<text x="301.0" y="640" text-anchor="middle" font-size="11" font-family="Arial" transform="rotate(-18 301.0,640)">reasoner_guard</text>
<rect x="393" y="533.2264833319591" width="74" height="86.77351666804093" fill="#2ecc71" rx="3"/>
<text x="430.0" y="527.2264833319591" text-anchor="middle" font-size="12" font-family="Arial">30.0</text>
<text x="430.0" y="640" text-anchor="middle" font-size="11" font-family="Arial" transform="rotate(-18 430.0,640)">full_loop</text>
<text x="760.0" y="366" text-anchor="middle" font-size="16" font-family="Arial" font-weight="bold">Jam steps</text>
<line x1="550" y1="620" x2="970" y2="620" stroke="#333"/>
<line x1="550" y1="380" x2="550" y2="620" stroke="#333"/>
<line x1="546" y1="620.0" x2="970" y2="620.0" stroke="#eee"/>
<text x="542" y="624.0" text-anchor="end" font-size="11" font-family="Arial" fill="#555">0</text>
<line x1="546" y1="560.0" x2="970" y2="560.0" stroke="#eee"/>
<text x="542" y="564.0" text-anchor="end" font-size="11" font-family="Arial" fill="#555">2</text>
<line x1="546" y1="500.0" x2="970" y2="500.0" stroke="#eee"/>
<text x="542" y="504.0" text-anchor="end" font-size="11" font-family="Arial" fill="#555">4</text>
<line x1="546" y1="440.0" x2="970" y2="440.0" stroke="#eee"/>
<text x="542" y="444.0" text-anchor="end" font-size="11" font-family="Arial" fill="#555">6</text>
<line x1="546" y1="380.0" x2="970" y2="380.0" stroke="#eee"/>
<text x="542" y="384.0" text-anchor="end" font-size="11" font-family="Arial" fill="#555">8</text>
<rect x="615" y="416.6101694915254" width="74" height="203.38983050847457" fill="#e74c3c" rx="3"/>
<text x="652.0" y="410.6101694915254" text-anchor="middle" font-size="12" font-family="Arial">6.9</text>
<text x="652.0" y="640" text-anchor="middle" font-size="11" font-family="Arial" transform="rotate(-18 652.0,640)">reactive</text>
<rect x="744" y="614.6766199596158" width="74" height="5.323380040384262" fill="#3498db" rx="3"/>
<text x="781.0" y="608.6766199596158" text-anchor="middle" font-size="12" font-family="Arial">0.2</text>
<text x="781.0" y="640" text-anchor="middle" font-size="11" font-family="Arial" transform="rotate(-18 781.0,640)">reasoner_guard</text>
<rect x="873" y="615.0437496175733" width="74" height="4.956250382426727" fill="#2ecc71" rx="3"/>
<text x="910.0" y="609.0437496175733" text-anchor="middle" font-size="12" font-family="Arial">0.2</text>
<text x="910.0" y="640" text-anchor="middle" font-size="11" font-family="Arial" transform="rotate(-18 910.0,640)">full_loop</text>
</svg>