<svg xmlns="http://www.w3.org/2000/svg" width="980" height="700" viewBox="0 0 980 700">
<rect width="100%" height="100%" fill="white"/>
<text x="490" y="34" text-anchor="middle" font-size="22" font-family="Arial" font-weight="bold">TopoEmbodiedLoop closed-loop comparison</text>
<text x="490" y="58" text-anchor="middle" font-size="13" font-family="Arial" fill="#555">reactive vs reasoner_guard vs full_loop</text>
<text x="280.0" y="56" text-anchor="middle" font-size="16" font-family="Arial" font-weight="bold">Success rate (%)</text>
<line x1="70" y1="310" x2="490" y2="310" stroke="#333"/>
<line x1="70" y1="70" x2="70" y2="310" stroke="#333"/>
<line x1="66" y1="310.0" x2="490" y2="310.0" stroke="#eee"/>
<text x="62" y="314.0" text-anchor="end" font-size="11" font-family="Arial" fill="#555">0</text>
<line x1="66" y1="250.0" x2="490" y2="250.0" stroke="#eee"/>
<text x="62" y="254.0" text-anchor="end" font-size="11" font-family="Arial" fill="#555">25</text>
<line x1="66" y1="190.0" x2="490" y2="190.0" stroke="#eee"/>
<text x="62" y="194.0" text-anchor="end" font-size="11" font-family="Arial" fill="#555">50</text>
<line x1="66" y1="130.0" x2="490" y2="130.0" stroke="#eee"/>
<text x="62" y="134.0" text-anchor="end" font-size="11" font-family="Arial" fill="#555">75</text>
<line x1="66" y1="70.0" x2="490" y2="70.0" stroke="#eee"/>
<text x="62" y="74.0" text-anchor="end" font-size="11" font-family="Arial" fill="#555">100</text>
<rect x="135" y="304.0" width="74" height="6.0" fill="#e74c3c" rx="3"/>
<text x="172.0" y="298.0" text-anchor="middle" font-size="12" font-family="Arial">2.5%</text>
<text x="172.0" y="330" text-anchor="middle" font-size="11" font-family="Arial" transform="rotate(-18 172.0,330)">reactive</text>
<rect x="264" y="98.5" width="74" height="211.5" fill="#3498db" rx="3"/>
<text x="301.0" y="92.5" text-anchor="middle" font-size="12" font-family="Arial">88.1%</text>
<text x="301.0" y="330" text-anchor="middle" font-size="11" font-family="Arial" transform="rotate(-18 301.0,330)">reasoner_guard</text>
<rect x="393" y="73.0" width="74" height="237.0" fill="#2ecc71" rx="3"/>
<text x="430.0" y="67.0" text-anchor="middle" font-size="12" font-family="Arial">98.8%</text>
<text x="430.0" y="330" text-anchor="middle" font-size="11" font-family="Arial" transform="rotate(-18 430.0,330)">full_loop</text>
<text x="760.0" y="56" text-anchor="middle" font-size="16" font-family="Arial" font-weight="bold">Peak force</text>
<line x1="550" y1="310" x2="970" y2="310" stroke="#333"/>
<line x1="550" y1="70" x2="550" y2="310" stroke="#333"/>
<line x1="546" y1="310.0" x2="970" y2="310.0" stroke="#eee"/>
<text x="542" y="314.0" text-anchor="end" font-size="11" font-family="Arial" fill="#555">0</text>
<line x1="546" y1="250.0" x2="970" y2="250.0" stroke="#eee"/>
<text x="542" y="254.0" text-anchor="end" font-size="11" font-family="Arial" fill="#555">31</text>
<line x1="546" y1="190.0" x2="970" y2="190.0" stroke="#eee"/>
<text x="542" y="194.0" text-anchor="end" font-size="11" font-family="Arial" fill="#555">62</text>
<line x1="546" y1="130.0" x2="970" y2="130.0" stroke="#eee"/>
<text x="542" y="134.0" text-anchor="end" font-size="11" font-family="Arial" fill="#555">93</text>
<line x1="546" y1="70.0" x2="970" y2="70.0" stroke="#eee"/>
<text x="542" y="74.0" text-anchor="end" font-size="11" font-family="Arial" fill="#555">123</text>
<rect x="615" y="106.61016949152543" width="74" height="203.38983050847457" fill="#e74c3c" rx="3"/>
<text x="652.0" y="100.61016949152543" text-anchor="middle" font-size="12" font-family="Arial">104.5</text>
<text x="652.0" y="330" text-anchor="middle" font-size="11" font-family="Arial" transform="rotate(-18 652.0,330)">reactive</text>
<rect x="744" y="206.28076050673934" width="74" height="103.71923949326064" fill="#3498db" rx="3"/>
<text x="781.0" y="200.28076050673934" text-anchor="middle" font-size="12" font-family="Arial">53.3</text>
<text x="781.0" y="330" text-anchor="middle" font-size="11" font-family="Arial" transform="rotate(-18 781.0,330)">reasoner_guard</text>
<rect x="873" y="214.27670646382796" width="74" height="95.72329353617205" fill="#2ecc71" rx="3"/>
<text x="910.0" y="208.27670646382796" text-anchor="middle" font-size="12" font-family="Arial">49.2</text>
<text x="910.0" y="330" text-anchor="middle" font-size="11" font-family="Arial" transform="rotate(-18 910.0,330)">full_loop</text>
<text x="280.0" y="366" text-anchor="middle" font-size="16" font-family="Arial" font-weight="bold">Impulse</text>
<line x1="70" y1="620" x2="490" y2="620" stroke="#333"/>
<line x1="70" y1="380" x2="70" y2="620" stroke="#333"/>
<line x1="66" y1="620.0" x2="490" y2="620.0" stroke="#eee"/>
<text x="62" y="624.0" text-anchor="end" font-size="11" font-family="Arial" fill="#555">0</text>
<line x1="66" y1="560.0" x2="490" y2="560.0" stroke="#eee"/>
<text x="62" y="564.0" text-anchor="end" font-size="11" font-family="Arial" fill="#555">22</text>
<line x1="66" y1="500.0" x2="490" y2="500.0" stroke="#eee"/>
<text x="62" y="504.0" text-anchor="end" font-size="11" font-family="Arial" fill="#555">45</text>
<line x1="66" y1="440.0" x2="490" y2="440.0" stroke="#eee"/>
<text x="62" y="444.0" text-anchor="end" font-size="11" font-family="Arial" fill="#555">67</text>
<line x1="66" y1="380.0" x2="490" y2="380.0" stroke="#eee"/>
<text x="62" y="384.0" text-anchor="end" font-size="11" font-family="Arial" fill="#555">90</text>
<rect x="135" y="416.6101694915254" width="74" height="203.38983050847455" fill="#e74c3c" rx="3"/>
<text x="172.0" y="410.6101694915254" text-anchor="middle" font-size="12" font-family="Arial">76.2</text>
<text x="172.0" y="640" text-anchor="middle" font-size="11" font-family="Arial" transform="rotate(-18 172.0,640)">reactive</text>
<rect x="264" y="557.3059717129369" width="74" height="62.694028287063084" fill="#3498db" rx="3"/>
<text x="301.0" y="551.3059717129369" text-anchor="middle" font-size="12" font-family="Arial">23.5</text>
<text x="301.0" y="640" text-anchor="middle" font-size="11" font-family="Arial" transform="rotate(-18 301.0,640)">reasoner_guard</text>
<rect x="393" y="564.8945169511275" width="74" height="55.10548304887253" fill="#2ecc71" rx="3"/>
<text x="430.0" y="558.8945169511275" text-anchor="middle" font-size="12" font-family="Arial">20.6</text>
<text x="430.0" y="640" text-anchor="middle" font-size="11" font-family="Arial" transform="rotate(-18 430.0,640)">full_loop</text>
<text x="760.0" y="366" text-anchor="middle" font-size="16" font-family="Arial" font-weight="bold">Jam steps</text>
<line x1="550" y1="620" x2="970" y2="620" stroke="#333"/>
<line x1="550" y1="380" x2="550" y2="620" stroke="#333"/>
<line x1="546" y1="620.0" x2="970" y2="620.0" stroke="#eee"/>
<text x="542" y="624.0" text-anchor="end" font-size="11" font-family="Arial" fill="#555">0</text>
<line x1="546" y1="560.0" x2="970" y2="560.0" stroke="#eee"/>
<text x="542" y="564.0" text-anchor="end" font-size="11" font-family="Arial" fill="#555">2</text>
<line x1="546" y1="500.0" x2="970" y2="500.0" stroke="#eee"/>
<text x="542" y="504.0" text-anchor="end" font-size="11" font-family="Arial" fill="#555">4</text>
<line x1="546" y1="440.0" x2="970" y2="440.0" stroke="#eee"/>
<text x="542" y="444.0" text-anchor="end" font-size="11" font-family="Arial" fill="#555">7</text>
<line x1="546" y1="380.0" x2="970" y2="380.0" stroke="#eee"/>
<text x="542" y="384.0" text-anchor="end" font-size="11" font-family="Arial" fill="#555">9</text>
<rect x="615" y="416.6101694915254" width="74" height="203.3898305084746" fill="#e74c3c" rx="3"/>
<text x="652.0" y="410.6101694915254" text-anchor="middle" font-size="12" font-family="Arial">7.5</text>
<text x="652.0" y="640" text-anchor="middle" font-size="11" font-family="Arial" transform="rotate(-18 652.0,640)">reactive</text>
<rect x="744" y="578.7448006564613" width="74" height="41.25519934353867" fill="#3498db" rx="3"/>
<text x="781.0" y="572.7448006564613" text-anchor="middle" font-size="12" font-family="Arial">1.5</text>
<text x="781.0" y="640" text-anchor="middle" font-size="11" font-family="Arial" transform="rotate(-18 781.0,640)">reasoner_guard</text>
<rect x="873" y="607.0971392999633" width="74" height="12.902860700036786" fill="#2ecc71" rx="3"/>
<text x="910.0" y="601.0971392999633" text-anchor="middle" font-size="12" font-family="Arial">0.5</text>
<text x="910.0" y="640" text-anchor="middle" font-size="11" font-family="Arial" transform="rotate(-18 910.0,640)">full_loop</text>
</svg>